<svg width="135" height="40" viewBox="0 0 135 40" fill="none" xmlns="http://www.w3.org/2000/svg">
<g clip-path="url(#clip0_9335_7019)">
<path d="M0 10.5C0 7.2 0 5.6 0.5625 4.3C1.35 2.6 2.925 1.2 4.8375 0.5C6.3 0 8.1 0 11.8125 0H123.188C126.9 0 128.7 0 130.162 0.5C132.075 1.2 133.65 2.6 134.438 4.3C135 5.6 135 7.2 135 10.5V29.5C135 32.8 135 34.4 134.438 35.7C133.65 37.4 132.075 38.8 130.162 39.5C128.7 40 126.9 40 123.188 40H11.8125C8.1 40 6.3 40 4.8375 39.5C2.925 38.8 1.35 37.4 0.5625 35.7C0 34.4 0 32.8 0 29.5V10.5Z" fill="#0C0D10"/>
<path d="M88.1002 19.2V21.5H86.7002V23H88.1002V28.1C88.1002 29.8 88.9002 30.5 90.9002 30.5C91.2002 30.5 91.6002 30.5 91.9002 30.4V29C91.7002 29 91.5002 29 91.2002 29C90.3002 29 89.9002 28.6 89.9002 27.6V23H91.9002V21.5H89.9002V19.2H88.1002Z" fill="white"/>
<path d="M96.9001 30.7C99.5001 30.7 101.2 28.9 101.2 26C101.2 23.1 99.6001 21.3 96.9001 21.3C94.3001 21.3 92.6001 23.1 92.6001 26C92.7001 28.9 94.3001 30.7 96.9001 30.7ZM96.9001 29.1C95.3001 29.1 94.5001 28 94.5001 26C94.5001 24 95.4001 22.9 96.9001 22.9C98.4001 22.9 99.3001 24 99.3001 26C99.3001 27.9 98.5001 29.1 96.9001 29.1Z" fill="white"/>
<path d="M102.6 30.5H104.4V25.2C104.4 23.9 105.4 23.1 106.7 23.1C107 23.1 107.5 23.2 107.7 23.2V21.4C107.5 21.4 107.2 21.3 106.9 21.3C105.7 21.3 104.7 21.9 104.5 22.8H104.4V21.4H102.6V30.5Z" fill="white"/>
<path d="M112.1 22.8C113.4 22.8 114.3 23.7 114.3 25.1H109.7C109.8 23.7 110.8 22.8 112.1 22.8ZM114.3 28C114 28.7 113.2 29.1 112.1 29.1C110.7 29.1 109.8 28.1 109.7 26.5V26.4H116.1V25.8C116.1 23 114.6 21.2 112.1 21.2C109.6 21.2 107.9 23 107.9 25.9C107.9 28.8 109.5 30.6 112.1 30.6C114.2 30.6 115.6 29.6 116 28H114.3V28Z" fill="white"/>
<path d="M76.3999 27.2C76.4999 29.4 78.3999 30.8 81.0999 30.8C83.9999 30.8 85.8999 29.3 85.8999 26.9C85.8999 25 84.8999 24 82.2999 23.4L80.8999 23.1C79.2999 22.7 78.5999 22.2 78.5999 21.3C78.5999 20.2 79.5999 19.5 81.0999 19.5C82.4999 19.5 83.4999 20.2 83.6999 21.4H85.5999C85.4999 19.3 83.5999 17.8 81.0999 17.8C78.3999 17.8 76.5999 19.3 76.5999 21.5C76.5999 23.3 77.5999 24.4 79.8999 24.9L81.4999 25.3C83.0999 25.7 83.8999 26.3 83.8999 27.2C83.8999 28.3 82.7999 29.1 81.1999 29.1C79.4999 29.1 78.3999 28.4 78.1999 27.2H76.3999V27.2Z" fill="white"/>
<path d="M57.8998 21.3C56.6998 21.3 55.5998 21.9 55.0998 22.9H54.9998V21.4H53.2998V33.4H55.0998V29H55.1998C55.6998 30 56.6998 30.5 57.9998 30.5C60.2998 30.5 61.6998 28.7 61.6998 25.8C61.6998 23.1 60.1998 21.3 57.8998 21.3ZM57.3998 29C55.8998 29 54.9998 27.8 54.9998 25.9C54.9998 24 55.8998 22.8 57.3998 22.8C58.8998 22.8 59.7998 24 59.7998 25.9C59.8998 27.9 58.8998 29 57.3998 29Z" fill="white"/>
<path d="M67.8998 21.3C66.6998 21.3 65.5998 21.9 65.0998 22.9H64.9998V21.4H63.2998V33.4H65.0998V29H65.1998C65.6998 30 66.6998 30.5 67.9998 30.5C70.2998 30.5 71.6998 28.7 71.6998 25.8C71.6998 23.1 70.1998 21.3 67.8998 21.3ZM67.3998 29C65.8998 29 64.9998 27.8 64.9998 25.9C64.9998 24 65.8998 22.8 67.3998 22.8C68.8998 22.8 69.7998 24 69.7998 25.9C69.7998 27.9 68.8998 29 67.3998 29Z" fill="white"/>
<path d="M50 30.5H52L47.6 18.1H45.5L41 30.5H43L44.1 27.2H48.8L50 30.5ZM46.5 20.3H46.6L48.4 25.5H44.6L46.5 20.3Z" fill="white"/>
<path d="M42.2998 8.70001V14.7H44.4998C46.2998 14.7 47.2998 13.6 47.2998 11.7C47.2998 9.80001 46.2998 8.70001 44.4998 8.70001H42.2998ZM43.1998 9.60001H44.2998C45.4998 9.60001 46.2998 10.4 46.2998 11.7C46.2998 13.1 45.5998 13.9 44.2998 13.9H43.1998V9.60001Z" fill="white"/>
<path d="M50.3998 14.8C51.6998 14.8 52.4998 13.9 52.4998 12.5C52.4998 11 51.6998 10.2 50.3998 10.2C49.0998 10.2 48.2998 11.1 48.2998 12.5C48.2998 13.9 49.0998 14.8 50.3998 14.8ZM50.3998 14C49.5998 14 49.1998 13.4 49.1998 12.4C49.1998 11.4 49.5998 10.8 50.3998 10.8C51.1998 10.8 51.5998 11.4 51.5998 12.4C51.5998 13.4 51.1998 14 50.3998 14Z" fill="white"/>
<path d="M59.4001 10.2H58.5001L57.7001 13.6H57.6001L56.7001 10.2H55.8001L54.9001 13.6H54.8001L54.0001 10.2H53.1001L54.3001 14.7H55.2001L56.1001 11.4H56.2001L57.1001 14.7H58.0001L59.4001 10.2Z" fill="white"/>
<path d="M60.3999 14.7H61.2999V12.1C61.2999 11.4 61.6999 11 62.3999 11C63.0999 11 63.3999 11.4 63.3999 12.1V14.8H64.2999V11.9C64.2999 10.8 63.6999 10.2 62.6999 10.2C61.9999 10.2 61.5999 10.5 61.3999 11H61.2999V10.3H60.3999V14.7Z" fill="white"/>
<path d="M65.7002 14.7H66.6002V8.40002H65.7002V14.7Z" fill="white"/>
<path d="M69.8998 14.8C71.1998 14.8 71.9998 13.9 71.9998 12.5C71.9998 11 71.1998 10.2 69.8998 10.2C68.5998 10.2 67.7998 11.1 67.7998 12.5C67.7998 13.9 68.5998 14.8 69.8998 14.8ZM69.8998 14C69.0998 14 68.6998 13.4 68.6998 12.4C68.6998 11.4 69.0998 10.8 69.8998 10.8C70.6998 10.8 71.0998 11.4 71.0998 12.4C71.1998 13.4 70.6998 14 69.8998 14Z" fill="white"/>
<path d="M74.7002 14C74.2002 14 73.9002 13.8 73.9002 13.4C73.9002 13 74.2002 12.8 74.8002 12.7L75.9002 12.6V13C75.9002 13.6 75.4002 14 74.7002 14ZM74.5002 14.8C75.1002 14.8 75.6002 14.5 75.9002 14.1H76.0002V14.7H76.9002V11.6C76.9002 10.6 76.3002 10.1 75.1002 10.1C74.1002 10.1 73.3002 10.6 73.3002 11.4H74.2002C74.3002 11.1 74.6002 10.9 75.1002 10.9C75.7002 10.9 76.0002 11.2 76.0002 11.6V12L74.8002 12.1C73.7002 12.2 73.1002 12.6 73.1002 13.4C73.0002 14.2 73.6002 14.8 74.5002 14.8Z" fill="white"/>
<path d="M79.7999 14.8C80.3999 14.8 80.8999 14.5 81.1999 14H81.2999V14.7H82.1999V8.40002H81.2999V10.9H81.1999C80.9999 10.4 80.3999 10.1 79.7999 10.1C78.6999 10.1 77.8999 11 77.8999 12.4C77.8999 13.9 78.6999 14.8 79.7999 14.8ZM80.0999 10.9C80.7999 10.9 81.2999 11.5 81.2999 12.4C81.2999 13.3 80.7999 13.9 80.0999 13.9C79.2999 13.9 78.8999 13.3 78.8999 12.4C78.8999 11.5 79.2999 10.9 80.0999 10.9Z" fill="white"/>
<path d="M87.8998 14.8C89.1998 14.8 89.9998 13.9 89.9998 12.5C89.9998 11 89.1998 10.2 87.8998 10.2C86.5998 10.2 85.7998 11.1 85.7998 12.5C85.7998 13.9 86.5998 14.8 87.8998 14.8ZM87.8998 14C87.0998 14 86.6998 13.4 86.6998 12.4C86.6998 11.4 87.0998 10.8 87.8998 10.8C88.6998 10.8 89.0998 11.4 89.0998 12.4C89.1998 13.4 88.6998 14 87.8998 14Z" fill="white"/>
<path d="M91.2998 14.7H92.1998V12.1C92.1998 11.4 92.5998 11 93.2998 11C93.9998 11 94.2998 11.4 94.2998 12.1V14.8H95.1998V11.9C95.1998 10.8 94.5998 10.2 93.5998 10.2C92.8998 10.2 92.4998 10.5 92.2998 11H92.1998V10.3H91.2998V14.7V14.7Z" fill="white"/>
<path d="M99.2 9.09998V10.2H98.5V11H99.2V13.6C99.2 14.5 99.6 14.8 100.6 14.8C100.8 14.8 100.9 14.8 101.1 14.8V14.1C101 14.1 100.9 14.1 100.8 14.1C100.4 14.1 100.2 13.9 100.2 13.4V11H101.2V10.2H100.2V9.09998H99.2Z" fill="white"/>
<path d="M102.3 14.7H103.2V12.1C103.2 11.4 103.6 11 104.3 11C104.9 11 105.3 11.4 105.3 12.1V14.8H106.2V11.9C106.2 10.8 105.6 10.2 104.6 10.2C103.9 10.2 103.4 10.5 103.2 11H103.1V8.40002H102.2V14.7H102.3Z" fill="white"/>
<path d="M109.4 10.9C110.1 10.9 110.5 11.4 110.5 12.1H108.2C108.3 11.3 108.7 10.9 109.4 10.9ZM110.5 13.5C110.3 13.9 110 14 109.4 14C108.7 14 108.2 13.5 108.2 12.7H111.4V12.4C111.4 11 110.6 10.1 109.4 10.1C108.1 10.1 107.3 11 107.3 12.5C107.3 14 108.1 14.8 109.4 14.8C110.4 14.8 111.2 14.3 111.4 13.5H110.5V13.5Z" fill="white"/>
<path d="M27.8037 20.3C27.8037 18.6 28.7037 17 30.2037 16.1C29.3037 14.8 27.8037 14 26.2037 13.9C24.5037 13.7 22.9037 14.9 22.0037 14.9C21.1037 14.9 19.8037 13.9 18.4037 13.9C16.6037 14 14.8037 15 13.9037 16.6C12.0037 19.9 13.4037 24.9 15.3037 27.6C16.2037 28.9 17.3037 30.4 18.7037 30.4C20.1037 30.3 20.6037 29.5 22.3037 29.5C24.0037 29.5 24.4037 30.4 25.9037 30.4C27.4037 30.4 28.3037 29.1 29.2037 27.7C29.9037 26.8 30.4037 25.7 30.7037 24.6C28.9037 24 27.8037 22.2 27.8037 20.3Z" fill="white"/>
<path d="M25.0037 12.2C25.8037 11.2 26.2037 10 26.1037 8.70001C24.9037 8.80001 23.7037 9.40001 22.9037 10.4C22.1037 11.3 21.7037 12.5 21.8037 13.8C23.0037 13.8 24.3037 13.2 25.0037 12.2Z" fill="white"/>
</g>
<defs>
<clipPath id="clip0_9335_7019">
<rect width="135" height="40" fill="white"/>
</clipPath>
</defs>
</svg>
