<svg width="120" height="120" viewBox="0 0 120 120" fill="none" xmlns="http://www.w3.org/2000/svg">
<g clip-path="url(#clip0_9335_7071)">
<path d="M60 120C93.1371 120 120 93.1371 120 60C120 26.8629 93.1371 0 60 0C26.8629 0 0 26.8629 0 60C0 93.1371 26.8629 120 60 120Z" fill="#F0F0F0"/>
<path d="M120 60.0002C120 93.1371 93.1369 120 60 120C26.8631 120 0 93.1371 0 60.0002C0 26.8633 60 60.0002 60 60.0002C60 60.0002 105.413 60.0002 120 60.0002Z" fill="#D80027"/>
<path d="M0 60C0 26.8631 26.8631 0 60 0C60 22.8176 60 60 60 60C60 60 20.8695 60 0 60Z" fill="#0052B4"/>
<path d="M35.7156 20.8694L39.6009 32.8267H52.1734L42.002 40.2166L45.887 52.1739L35.7156 44.7838L25.5442 52.1739L29.4292 40.2166L19.2578 32.8267H31.8304L35.7156 20.8694Z" fill="#F0F0F0"/>
</g>
<defs>
<clipPath id="clip0_9335_7071">
<rect width="120" height="120" fill="white"/>
</clipPath>
</defs>
</svg>
