<svg width="120" height="120" viewBox="0 0 120 120" fill="none" xmlns="http://www.w3.org/2000/svg">
<g clip-path="url(#clip0_9335_7082)">
<path d="M60 120C93.1371 120 120 93.1371 120 60C120 26.8629 93.1371 0 60 0C26.8629 0 0 26.8629 0 60C0 93.1371 26.8629 120 60 120Z" fill="#F0F0F0"/>
<path d="M120 60.0004C120 34.2027 103.717 12.2099 80.8691 3.73254V116.269C103.717 107.791 120 85.7985 120 60.0004Z" fill="#D80027"/>
<path d="M0 60.0004C0 85.7985 16.2825 107.791 39.1305 116.269V3.73254C16.2825 12.2099 0 34.2027 0 60.0004Z" fill="#D80027"/>
</g>
<defs>
<clipPath id="clip0_9335_7082">
<rect width="120" height="120" fill="white"/>
</clipPath>
</defs>
</svg>
