<svg width="120" height="120" viewBox="0 0 120 120" fill="none" xmlns="http://www.w3.org/2000/svg">
<g clip-path="url(#clip0_9335_7092)">
<path d="M60 120C93.1371 120 120 93.1371 120 60C120 26.8629 93.1371 0 60 0C26.8629 0 0 26.8629 0 60C0 93.1371 26.8629 120 60 120Z" fill="#F0F0F0"/>
<path d="M57.3906 59.9998H119.999C119.999 54.5843 119.277 49.3381 117.932 44.3475H57.3906V59.9998Z" fill="#D80027"/>
<path d="M57.3906 28.6957H111.193C107.52 22.7023 102.824 17.4047 97.3483 13.0435H57.3906V28.6957Z" fill="#D80027"/>
<path d="M59.9995 120C74.1203 120 87.0993 115.119 97.3485 106.957H22.6504C32.8996 115.119 45.8786 120 59.9995 120Z" fill="#D80027"/>
<path d="M8.80586 91.3047H111.193C114.142 86.4932 116.429 81.2339 117.932 75.6525H2.06641C3.57039 81.2339 5.85719 86.4932 8.80586 91.3047Z" fill="#D80027"/>
<path d="M27.7931 9.36984H33.2609L28.1749 13.0648L30.1177 19.0434L25.032 15.3485L19.9462 19.0434L21.6244 13.8785C17.1464 17.6086 13.2216 21.9788 9.98719 26.8481H11.7391L8.50172 29.2001C7.99734 30.0415 7.51359 30.8962 7.05 31.7637L8.59594 36.5217L5.71172 34.4262C4.99477 35.9452 4.33898 37.4984 3.74953 39.0839L5.45273 44.3264H11.7391L6.6532 48.0213L8.59594 54L3.51023 50.3051L0.463828 52.5185C0.158906 54.9696 0 57.4662 0 60H60C60 26.8631 60 22.9566 60 0C48.1472 0 37.098 3.43828 27.7931 9.36984ZM30.1177 54L25.032 50.3051L19.9462 54L21.889 48.0213L16.803 44.3264H23.0895L25.032 38.3477L26.9745 44.3264H33.2609L28.1749 48.0213L30.1177 54ZM28.1749 30.543L30.1177 36.5217L25.032 32.8268L19.9462 36.5217L21.889 30.543L16.803 26.8481H23.0895L25.032 20.8695L26.9745 26.8481H33.2609L28.1749 30.543ZM51.6394 54L46.5537 50.3051L41.468 54L43.4107 48.0213L38.3248 44.3264H44.6112L46.5537 38.3477L48.4962 44.3264H54.7826L49.6966 48.0213L51.6394 54ZM49.6966 30.543L51.6394 36.5217L46.5537 32.8268L41.468 36.5217L43.4107 30.543L38.3248 26.8481H44.6112L46.5537 20.8695L48.4962 26.8481H54.7826L49.6966 30.543ZM49.6966 13.0648L51.6394 19.0434L46.5537 15.3485L41.468 19.0434L43.4107 13.0648L38.3248 9.36984H44.6112L46.5537 3.39117L48.4962 9.36984H54.7826L49.6966 13.0648Z" fill="#0052B4"/>
</g>
<defs>
<clipPath id="clip0_9335_7092">
<rect width="120" height="120" fill="white"/>
</clipPath>
</defs>
</svg>
